<?xml version="1.0" encoding="utf-8"?>
<!-- Generator: Adobe Illustrator 16.0.2, SVG Export Plug-In . SVG Version: 6.00 Build 0)  -->
<!DOCTYPE svg PUBLIC "-//W3C//DTD SVG 1.1//EN" "http://www.w3.org/Graphics/SVG/1.1/DTD/svg11.dtd">
<svg version="1.1" id="Layer_1" xmlns="http://www.w3.org/2000/svg" xmlns:xlink="http://www.w3.org/1999/xlink" x="0px" y="0px"
	 width="45.354px" height="45.354px" viewBox="0 0 45.354 45.354" enable-background="new 0 0 45.354 45.354" xml:space="preserve">
<line fill="none" x1="-683.747" y1="68.942" x2="759.253" y2="68.942"/>
<line fill="none" x1="-683.747" y1="68.942" x2="759.253" y2="68.942"/>
<line fill="none" stroke="#D8D8D8" stroke-linecap="square" stroke-miterlimit="10" x1="-682.247" y1="66.442" x2="757.753" y2="66.442"/>
<line fill="none" x1="-683.747" y1="68.942" x2="759.253" y2="68.942"/>
<polyline opacity="0.7" fill="#D0D0D0" points="431.253,3.941 485.253,3.941 485.253,57.942 431.253,57.942 "/>
<rect x="436.253" y="8.941" fill="none" width="44" height="44"/>
<g>
	<defs>
		<path id="SVGID_1_" d="M463.132,37.817c-0.791-0.316-0.739-3.639-0.739-3.639s1.793-1.793,2.479-3.111
			c0.686-1.318,1.16-6.119,1.16-6.119c0.211-1.266,0.105-2.584-0.264-3.797c-0.791-2.584-2.742-4.641-5.273-5.59
			c0,0-1.267-0.264-2.269-0.264s-2.163,0.264-2.163,0.264c-2.53,0.949-4.482,3.006-5.273,5.59c-0.369,1.213-0.475,2.531-0.264,3.797
			c0,0,0.475,4.801,1.16,6.119s2.427,3.111,2.427,3.111s0.053,3.322-0.739,3.639c-0.791,0.316-9.493,3.482-11.339,4.432
			c-1.847,0.949-1.793,3.955-1.793,3.955l17.984,14.135l18.037-14.135c0,0,0-3.006-1.793-3.955S463.923,38.133,463.132,37.817z"/>
	</defs>
	<clipPath id="SVGID_2_">
		<use xlink:href="#SVGID_1_"  overflow="visible"/>
	</clipPath>
	<g clip-path="url(#SVGID_2_)">
		<defs>
			<rect id="SVGID_3_" x="436.253" y="8.941" width="44" height="44"/>
		</defs>
		<clipPath id="SVGID_4_">
			<use xlink:href="#SVGID_3_"  overflow="visible"/>
		</clipPath>
		<rect x="435.242" y="10.297" opacity="0.2" clip-path="url(#SVGID_4_)" width="46.021" height="55.041"/>
	</g>
</g>
<rect x="436.253" y="8.941" fill="none" width="44" height="44"/>
<line fill="none" x1="-683.747" y1="68.942" x2="759.253" y2="68.942"/>
<circle fill-rule="evenodd" clip-rule="evenodd" fill="none" cx="458.253" cy="30.942" r="22"/>
<rect x="486.253" y="22.942" fill="#8A8A8A" width="20" height="16"/>
<line fill="none" x1="-683.747" y1="68.942" x2="759.253" y2="68.942"/>
<path fill-rule="evenodd" clip-rule="evenodd" fill="none" d="M491.253,28.475c0,0.105,0.037,0.211,0.11,0.293l4.575,5.053
	c0.069,0.076,0.164,0.121,0.265,0.121c0.099,0,0.194-0.045,0.265-0.121l4.676-5.174c0.146-0.162,0.146-0.424-0.001-0.584
	c-0.146-0.162-0.383-0.162-0.529,0l-4.411,4.879l-4.311-4.76c-0.146-0.162-0.383-0.162-0.528,0
	C491.29,28.262,491.253,28.37,491.253,28.475"/>
<path fill="none" stroke="#8A8A8A" stroke-width="0.5" stroke-miterlimit="10" d="M491.253,28.475c0,0.105,0.036,0.211,0.109,0.293
	l4.575,5.053c0.07,0.076,0.166,0.121,0.265,0.121c0.1,0,0.195-0.045,0.266-0.121l4.676-5.174c0.146-0.162,0.146-0.424-0.001-0.584
	c-0.146-0.162-0.383-0.162-0.529,0l-4.411,4.879l-4.31-4.76c-0.146-0.162-0.384-0.162-0.53,0
	C491.289,28.262,491.253,28.37,491.253,28.475"/>
<line fill="none" x1="-683.747" y1="68.942" x2="759.253" y2="68.942"/>
<g>
	<circle fill-rule="evenodd" clip-rule="evenodd" fill="#DEDEDE" cx="22.814" cy="23.193" r="22"/>
	<path fill="#B1B1B1" d="M39.04,34.412c-1.793-0.949-10.547-4.115-11.338-4.432s-0.74-3.639-0.74-3.639s1.793-1.793,2.48-3.111
		c0.686-1.318,1.16-6.119,1.16-6.119c0.211-1.266,0.105-2.584-0.264-3.797c-0.791-2.584-2.742-4.641-5.273-5.59
		c0,0-1.268-0.264-2.27-0.264s-2.162,0.264-2.162,0.264c-2.531,0.949-4.482,3.006-5.273,5.59c-0.369,1.213-0.475,2.531-0.264,3.797
		c0,0,0.475,4.801,1.16,6.119s2.426,3.111,2.426,3.111s0.053,3.322-0.738,3.639s-9.494,3.482-11.34,4.432
		c-0.705,0.361-1.131,1.023-1.391,1.703c4.014,5.35,10.406,8.811,17.609,8.811c7.191,0,13.578-3.453,17.592-8.791
		C40.153,35.449,39.731,34.777,39.04,34.412z"/>
</g>
<path fill="#8A8A8A" d="M55.814,20.715c0,0.105,0.036,0.211,0.109,0.293l4.575,5.053c0.07,0.076,0.166,0.121,0.265,0.121
	c0.1,0,0.195-0.045,0.266-0.121l4.676-5.174c0.146-0.162,0.146-0.424-0.001-0.584c-0.146-0.162-0.383-0.162-0.529,0l-4.411,4.879
	l-4.31-4.76c-0.146-0.162-0.384-0.162-0.53,0C55.851,20.502,55.814,20.61,55.814,20.715"/>
</svg>
